<?xml version="1.0" encoding="UTF-8" standalone="no"?>
<!-- Uploaded to: SVG Repo, www.svgrepo.com, Generator: SVG Repo Mixer Tools -->

<svg
   height="800"
   width="555.11877"
   version="1.1"
   id="_x32_"
   viewBox="0 0 355.27602 512"
   xml:space="preserve"
   xmlns="http://www.w3.org/2000/svg"
   xmlns:svg="http://www.w3.org/2000/svg"><defs
   id="defs1" />
<style
   type="text/css"
   id="style1">
	.st0{fill:#000000;}
</style>
<g
   id="g1"
   style="fill:#fd5885;fill-opacity:1;fill-rule:nonzero"
   transform="translate(-78.362)">
	<path
   class="st0"
   d="M 431.684,252.936 C 391.106,220.157 281.064,67.616 260.123,5.538 258.899,1.913 257.845,0 255.988,0 c -1.832,0 -2.894,1.913 -4.11,5.538 -20.958,62.078 -130.984,214.619 -171.57,247.398 -1.053,0.843 -1.946,2.44 -1.946,3.064 0,0.624 0.893,2.222 1.946,3.057 40.586,32.778 150.612,185.319 171.57,247.406 1.216,3.624 2.278,5.537 4.11,5.537 1.857,0 2.911,-1.913 4.135,-5.537 20.941,-62.087 130.983,-214.628 171.561,-247.406 1.046,-0.835 1.954,-2.432 1.954,-3.057 0,-0.624 -0.908,-2.222 -1.954,-3.064 z"
   id="path1"
   style="fill:#fd5885;fill-opacity:1;fill-rule:nonzero" />
</g>
</svg>
